{"asset":{"version":"2.0","generator":"VECTARY"},"nodes":[{"translation":[0,0,0],"scale":[0.001,0.001,0.001],"rotation":[-0.7071067811865475,0,0,0.7071067811865476],"name":"Walls","children":[1,2,3,4]},{"translation":[0,0,-0.5322537489688273],"scale":[1,1,1],"rotation":[0,0,0,1],"name":"SquarePlane","mesh":0},{"translation":[-98.14252720332036,0,0],"scale":[0.9867616911898487,0.9867616911898487,0.9867616911898487],"rotation":[0,0,0,0.9999999999999998],"name":"Box 1","mesh":1},{"translation":[1.9399764866691243,97.53374310466177,0],"scale":[1,1,1],"rotation":[0,0,0,1],"name":"Box 2","mesh":2},{"translation":[101.31566518817266,0,0],"scale":[0.9867616911898487,0.9867616911898487,0.9867616911898487],"rotation":[0,0,0,0.9999999999999998],"name":"Box","mesh":3},{"translation":[-1.4075993527127098e-19,3.552713678800501e-18,-0.02028564454516452],"scale":[0.1,0.1,0.1],"rotation":[-0.7068626066457949,0.01858104749232645,0.018581047492326454,0.706862606645795],"name":"colored screen and clipboard","children":[6,10]},{"translation":[0.14857164414077978,0.4431063345374492,0.362269401550293],"scale":[1,1,1],"rotation":[-0.05531820697023361,0,0,0.9984687756648168],"name":"mesh431932033","children":[7,8,9]},{"translation":[0,0,0],"scale":[1,1,1],"rotation":[0.7071067811865475,0,0,0.7071067811865476],"name":"Buffer Layer","mesh":4},{"translation":[0,0,0],"scale":[1,1,1],"rotation":[0.7071067811865475,0,0,0.7071067811865476],"name":"Buffer Layer","mesh":5},{"translation":[0,0,0],"scale":[1,1,1],"rotation":[0.7071067811865475,0,0,0.7071067811865476],"name":"Buffer Layer","mesh":6},{"translation":[0.2954983711242676,0.6065013723698183,0.362269401550293],"scale":[1,1,1],"rotation":[0,0,0,1],"name":"mesh1599648142","children":[11,12,13,14,15,16,17,18,19]},{"translation":[0,0,0],"scale":[1,1,1],"rotation":[0.7071067811865475,0,0,0.7071067811865476],"name":"Buffer Layer","mesh":7},{"translation":[0,0,0],"scale":[1,1,1],"rotation":[0.7071067811865475,0,0,0.7071067811865476],"name":"Buffer Layer","mesh":8},{"translation":[0,0,0],"scale":[1,1,1],"rotation":[0.7071067811865475,0,0,0.7071067811865476],"name":"Buffer Layer","mesh":9},{"translation":[0,0,0],"scale":[1,1,1],"rotation":[0.7071067811865475,0,0,0.7071067811865476],"name":"Buffer Layer","mesh":10},{"translation":[0,0,0],"scale":[1,1,1],"rotation":[0.7071067811865475,0,0,0.7071067811865476],"name":"Buffer Layer","mesh":11},{"translation":[0,0,0],"scale":[1,1,1],"rotation":[0.7071067811865475,0,0,0.7071067811865476],"name":"Buffer Layer","mesh":12},{"translation":[0,0,0],"scale":[1,1,1],"rotation":[0.7071067811865475,0,0,0.7071067811865476],"name":"Buffer Layer","mesh":13},{"translation":[0,0,0],"scale":[1,1,1],"rotation":[0.7071067811865475,0,0,0.7071067811865476],"name":"Buffer Layer","mesh":14},{"translation":[0,0,0],"scale":[1,1,1],"rotation":[0.7071067811865475,0,0,0.7071067811865476],"name":"Buffer Layer","mesh":15},{"translation":[1.4794492852260301e-19,0.0005243226230419404,0.015275992557855745],"scale":[0.004583790547543972,0.004583790547543972,0.004583790547543972],"rotation":[0.01537799032412555,0.6742096287654011,0.7382463394882385,-0.014044077962884097],"name":"Teacher","children":[21,22,23,24,25,26]},{"translation":[0,-1.8117760419845625,0.11157999932765983],"scale":[1,1,1],"rotation":[0.7071067811865475,0,0,0.7071067811865476],"name":"Buffer Layer","mesh":16},{"translation":[0,-1.8117760419845625,0.11157999932765983],"scale":[1,1,1],"rotation":[0.7071067811865475,0,0,0.7071067811865476],"name":"Buffer Layer","mesh":17},{"translation":[0,-1.8117760419845625,0.11157999932765983],"scale":[1,1,1],"rotation":[0.7071067811865475,0,0,0.7071067811865476],"name":"Buffer Layer","mesh":18},{"translation":[0,-1.8117760419845625,0.11157999932765983],"scale":[1,1,1],"rotation":[0.7071067811865475,0,0,0.7071067811865476],"name":"Buffer Layer","mesh":19},{"translation":[0,-1.8117760419845625,0.11157999932765983],"scale":[1,1,1],"rotation":[0.7071067811865475,0,0,0.7071067811865476],"name":"Buffer Layer","mesh":20},{"translation":[0,-1.8117760419845625,0.11157999932765983],"scale":[1,1,1],"rotation":[0.7071067811865475,0,0,0.7071067811865476],"name":"Buffer Layer","mesh":21}],"materials":[{"pbrMetallicRoughness":{"baseColorFactor":[0,0,0,1],"metallicFactor":0,"roughnessFactor":0.2},"name":"Cool Touch","emissiveFactor":[0,0,0],"alphaMode":"OPAQUE","doubleSided":false},{"pbrMetallicRoughness":{"baseColorFactor":[0,0.004116177093282753,1,1],"metallicFactor":0,"roughnessFactor":0.2},"name":"Monte Carlo 1","emissiveFactor":[0,0,0],"alphaMode":"OPAQUE","doubleSided":false},{"pbrMetallicRoughness":{"baseColorFactor":[0.16044351072534352,0.1668722718907655,0.30212549635885283,1],"metallicFactor":0,"roughnessFactor":0.2},"name":"Bolognese","emissiveFactor":[0,0,0],"alphaMode":"OPAQUE","doubleSided":false},{"pbrMetallicRoughness":{"baseColorFactor":[0,0.004116177093282753,1,1],"metallicFactor":0,"roughnessFactor":0.2},"name":"Monte Carlo","emissiveFactor":[0,0,0],"alphaMode":"OPAQUE","doubleSided":false},{"pbrMetallicRoughness":{"baseColorFactor":[0.18993949870259125,0.08724301538940077,0.060778176913320416,1],"metallicFactor":0,"roughnessFactor":0.7},"name":"mat20","emissiveFactor":[0,0,0],"alphaMode":"OPAQUE","doubleSided":false},{"pbrMetallicRoughness":{"baseColorFactor":[1,1,1,1],"metallicFactor":0,"roughnessFactor":0.7},"name":"mat21","emissiveFactor":[0,0,0],"alphaMode":"OPAQUE","doubleSided":false},{"pbrMetallicRoughness":{"baseColorFactor":[0.3493507797183064,0.3493507797183064,0.3493507797183064,1],"metallicFactor":0,"roughnessFactor":0.7},"name":"mat22","emissiveFactor":[0,0,0],"alphaMode":"OPAQUE","doubleSided":false},{"pbrMetallicRoughness":{"baseColorFactor":[0.07074027770369604,0.44204654409777044,0.07603187951792795,1],"metallicFactor":0,"roughnessFactor":0.7},"name":"mat10","emissiveFactor":[0,0,0],"alphaMode":"OPAQUE","doubleSided":false},{"pbrMetallicRoughness":{"baseColorFactor":[0.8324022015317222,0.893288887972507,0.8727327588345122,0.4],"metallicFactor":0,"roughnessFactor":0.7},"name":"mat24","emissiveFactor":[0,0,0],"alphaMode":"BLEND","doubleSided":false},{"pbrMetallicRoughness":{"baseColorFactor":[0.217637640824031,0.7361093866478738,0.8324022015317222,1],"metallicFactor":0,"roughnessFactor":0.7},"name":"mat3","emissiveFactor":[0,0,0],"alphaMode":"OPAQUE","doubleSided":false},{"pbrMetallicRoughness":{"baseColorFactor":[0,0.5155962896487515,0.6636999779711151,1],"metallicFactor":0,"roughnessFactor":0.7},"name":"mat4","emissiveFactor":[0,0,0],"alphaMode":"OPAQUE","doubleSided":false},{"pbrMetallicRoughness":{"baseColorFactor":[1,0.3250369625210763,0,1],"metallicFactor":0,"roughnessFactor":0.7},"name":"mat13","emissiveFactor":[0,0,0],"alphaMode":"OPAQUE","doubleSided":false},{"pbrMetallicRoughness":{"baseColorFactor":[0.914106322282813,0.05163466521689996,0.03227620375301508,1],"metallicFactor":0,"roughnessFactor":0.7},"name":"mat8","emissiveFactor":[0,0,0],"alphaMode":"OPAQUE","doubleSided":false},{"pbrMetallicRoughness":{"baseColorFactor":[0.05610483392389311,0.09930010267962124,0.12599175789668635,1],"metallicFactor":0,"roughnessFactor":0.7},"name":"mat17","emissiveFactor":[0,0,0],"alphaMode":"OPAQUE","doubleSided":false},{"pbrMetallicRoughness":{"baseColorFactor":[0.8324022015317222,0.893288887972507,0.8727327588345122,0.4],"metallicFactor":0,"roughnessFactor":0.7},"name":"mat25","emissiveFactor":[0,0,0],"alphaMode":"BLEND","doubleSided":false},{"pbrMetallicRoughness":{"baseColorFactor":[0.26840952091331366,0.5467513990701884,0.06565617762934217,1],"metallicFactor":0,"roughnessFactor":0.7},"name":"mat9","emissiveFactor":[0,0,0],"alphaMode":"OPAQUE","doubleSided":false},{"pbrMetallicRoughness":{"baseColorFactor":[0.19397234338647054,0.08919331063665047,0.06190750397971897,1],"metallicFactor":0,"roughnessFactor":0.7},"name":"795548","emissiveFactor":[0,0,0],"alphaMode":"OPAQUE","doubleSided":false},{"pbrMetallicRoughness":{"baseColorFactor":[1,1,1,1],"metallicFactor":1,"roughnessFactor":1},"name":"FFFFFF","emissiveFactor":[1,1,1],"alphaMode":"OPAQUE","doubleSided":false},{"pbrMetallicRoughness":{"baseColorFactor":[0.7299195109758919,0.3250369625210763,0.054592427410635455,1],"metallicFactor":0,"roughnessFactor":0.7},"name":"DD9944","emissiveFactor":[0,0,0],"alphaMode":"OPAQUE","doubleSided":false},{"pbrMetallicRoughness":{"baseColorFactor":[0.006584988027999169,0.006584988027999169,0.006584988027999169,1],"metallicFactor":0,"roughnessFactor":0.7},"name":"1A1A1A","emissiveFactor":[0,0,0],"alphaMode":"OPAQUE","doubleSided":false},{"pbrMetallicRoughness":{"baseColorFactor":[1,0.09387558166111507,0.011881269087572296,1],"metallicFactor":0,"roughnessFactor":0.7},"name":"FF5722","emissiveFactor":[0,0,0],"alphaMode":"OPAQUE","doubleSided":false},{"pbrMetallicRoughness":{"baseColorFactor":[0,0.5113979684959553,0.6661177637175864,1],"metallicFactor":0,"roughnessFactor":0.7},"name":"00BCD4","emissiveFactor":[0,0,0],"alphaMode":"OPAQUE","doubleSided":false}],"meshes":[{"primitives":[{"mode":4,"attributes":{"POSITION":1,"NORMAL":2},"material":0,"indices":0}]},{"primitives":[{"mode":4,"attributes":{"POSITION":4,"NORMAL":5},"material":1,"indices":3}]},{"primitives":[{"mode":4,"attributes":{"POSITION":7,"NORMAL":8},"material":2,"indices":6}]},{"primitives":[{"mode":4,"attributes":{"POSITION":10,"NORMAL":11},"material":3,"indices":9}]},{"primitives":[{"mode":4,"attributes":{"POSITION":13,"NORMAL":14},"material":4,"indices":12}]},{"primitives":[{"mode":4,"attributes":{"POSITION":16,"NORMAL":17},"material":5,"indices":15}]},{"primitives":[{"mode":4,"attributes":{"POSITION":19,"NORMAL":20},"material":6,"indices":18}]},{"primitives":[{"mode":4,"attributes":{"POSITION":22,"NORMAL":23},"material":7,"indices":21}]},{"primitives":[{"mode":4,"attributes":{"POSITION":25,"NORMAL":26},"material":8,"indices":24}]},{"primitives":[{"mode":4,"attributes":{"POSITION":28,"NORMAL":29},"material":9,"indices":27}]},{"primitives":[{"mode":4,"attributes":{"POSITION":31,"NORMAL":32},"material":10,"indices":30}]},{"primitives":[{"mode":4,"attributes":{"POSITION":34,"NORMAL":35},"material":11,"indices":33}]},{"primitives":[{"mode":4,"attributes":{"POSITION":37,"NORMAL":38},"material":12,"indices":36}]},{"primitives":[{"mode":4,"attributes":{"POSITION":40,"NORMAL":41},"material":13,"indices":39}]},{"primitives":[{"mode":4,"attributes":{"POSITION":43,"NORMAL":44},"material":14,"indices":42}]},{"primitives":[{"mode":4,"attributes":{"POSITION":46,"NORMAL":47},"material":15,"indices":45}]},{"primitives":[{"mode":4,"attributes":{"POSITION":49,"NORMAL":50},"material":16,"indices":48}]},{"primitives":[{"mode":4,"attributes":{"POSITION":52,"NORMAL":53},"material":17,"indices":51}]},{"primitives":[{"mode":4,"attributes":{"POSITION":55,"NORMAL":56},"material":18,"indices":54}]},{"primitives":[{"mode":4,"attributes":{"POSITION":58,"NORMAL":59},"material":19,"indices":57}]},{"primitives":[{"mode":4,"attributes":{"POSITION":61,"NORMAL":62},"material":20,"indices":60}]},{"primitives":[{"mode":4,"attributes":{"POSITION":64,"NORMAL":65},"material":21,"indices":63}]}],"accessors":[{"bufferView":0,"byteOffset":0,"componentType":5125,"count":390,"type":"SCALAR"},{"bufferView":1,"byteOffset":0,"componentType":5126,"count":76,"max":[100.69999694824219,98.0999984741211,0],"min":[-100.69999694824219,-98.0999984741211,0],"type":"VEC3"},{"bufferView":2,"byteOffset":0,"componentType":5126,"count":76,"type":"VEC3"},{"bufferView":3,"byteOffset":0,"componentType":5125,"count":900,"type":"SCALAR"},{"bufferView":4,"byteOffset":0,"componentType":5126,"count":152,"max":[7.949999809265137,100.5999984741211,100],"min":[-7.949999809265137,-100.5999984741211,0],"type":"VEC3"},{"bufferView":5,"byteOffset":0,"componentType":5126,"count":152,"type":"VEC3"},{"bufferView":6,"byteOffset":0,"componentType":5125,"count":900,"type":"SCALAR"},{"bufferView":7,"byteOffset":0,"componentType":5126,"count":152,"max":[105.55000305175781,9.949999809265137,100],"min":[-105.55000305175781,-9.949999809265137,0],"type":"VEC3"},{"bufferView":8,"byteOffset":0,"componentType":5126,"count":152,"type":"VEC3"},{"bufferView":9,"byteOffset":0,"componentType":5125,"count":900,"type":"SCALAR"},{"bufferView":10,"byteOffset":0,"componentType":5126,"count":152,"max":[7.949999809265137,100.5999984741211,100],"min":[-7.949999809265137,-100.5999984741211,0],"type":"VEC3"},{"bufferView":11,"byteOffset":0,"componentType":5126,"count":152,"type":"VEC3"},{"bufferView":12,"byteOffset":0,"componentType":5125,"count":84,"type":"SCALAR"},{"bufferView":13,"byteOffset":0,"componentType":5126,"count":56,"max":[-0.32025471329689026,0.1723300963640213,-0.02311665005981922],"min":[-0.6242650747299194,-0.18113470077514648,-0.3169788122177124],"type":"VEC3"},{"bufferView":14,"byteOffset":0,"componentType":5126,"count":56,"type":"VEC3"},{"bufferView":15,"byteOffset":0,"componentType":5125,"count":36,"type":"SCALAR"},{"bufferView":16,"byteOffset":0,"componentType":5126,"count":24,"max":[-0.3318631947040558,0.14125849306583405,-0.05357879027724266],"min":[-0.5983051061630249,-0.15445689857006073,-0.3082345128059387],"type":"VEC3"},{"bufferView":17,"byteOffset":0,"componentType":5126,"count":24,"type":"VEC3"},{"bufferView":18,"byteOffset":0,"componentType":5125,"count":156,"type":"SCALAR"},{"bufferView":19,"byteOffset":0,"componentType":5126,"count":92,"max":[-0.4194723069667816,0.18251879513263702,-0.0746450275182724],"min":[-0.5669807195663452,0.11910949647426605,-0.18169890344142914],"type":"VEC3"},{"bufferView":20,"byteOffset":0,"componentType":5126,"count":92,"type":"VEC3"},{"bufferView":21,"byteOffset":0,"componentType":5125,"count":180,"type":"SCALAR"},{"bufferView":22,"byteOffset":0,"componentType":5126,"count":120,"max":[0.12788160145282745,-0.04068148136138916,0.0286409892141819],"min":[0.08492761850357056,-0.048702239990234375,0.018526939675211906],"type":"VEC3"},{"bufferView":23,"byteOffset":0,"componentType":5126,"count":120,"type":"VEC3"},{"bufferView":24,"byteOffset":0,"componentType":5125,"count":2952,"type":"SCALAR"},{"bufferView":25,"byteOffset":0,"componentType":5126,"count":2072,"max":[0.3235797882080078,0.43824928998947144,0.06284865736961365],"min":[-0.3211382031440735,-0.05369352921843529,-0.033446911722421646],"type":"VEC3"},{"bufferView":26,"byteOffset":0,"componentType":5126,"count":2072,"type":"VEC3"},{"bufferView":27,"byteOffset":0,"componentType":5125,"count":108,"type":"SCALAR"},{"bufferView":28,"byteOffset":0,"componentType":5126,"count":72,"max":[0.3252941966056824,0.027148010209202766,0.04441409930586815],"min":[-0.30496880412101746,-0.0414353609085083,-0.05201926827430725],"type":"VEC3"},{"bufferView":29,"byteOffset":0,"componentType":5126,"count":72,"type":"VEC3"},{"bufferView":30,"byteOffset":0,"componentType":5125,"count":132,"type":"SCALAR"},{"bufferView":31,"byteOffset":0,"componentType":5126,"count":88,"max":[0.32876670360565186,0.44469690322875977,0.0594961903989315],"min":[-0.3215104043483734,-0.06764864921569824,-0.07192658632993698],"type":"VEC3"},{"bufferView":32,"byteOffset":0,"componentType":5126,"count":88,"type":"VEC3"},{"bufferView":33,"byteOffset":0,"componentType":5125,"count":36,"type":"SCALAR"},{"bufferView":34,"byteOffset":0,"componentType":5126,"count":24,"max":[0.296742707490921,-0.034950610250234604,0.04288763180375099],"min":[0.2899737060070038,-0.041742678731679916,0.035826440900564194],"type":"VEC3"},{"bufferView":35,"byteOffset":0,"componentType":5126,"count":24,"type":"VEC3"},{"bufferView":36,"byteOffset":0,"componentType":5125,"count":36,"type":"SCALAR"},{"bufferView":37,"byteOffset":0,"componentType":5126,"count":24,"max":[0.28769651055336,-0.03525733947753906,0.04212456941604614],"min":[0.2809273898601532,-0.04204941168427467,0.03506338968873024],"type":"VEC3"},{"bufferView":38,"byteOffset":0,"componentType":5126,"count":24,"type":"VEC3"},{"bufferView":39,"byteOffset":0,"componentType":5125,"count":108,"type":"SCALAR"},{"bufferView":40,"byteOffset":0,"componentType":5126,"count":72,"max":[-0.2490399032831192,-0.05347288027405739,-0.0031598510686308146],"min":[-0.2889784872531891,-0.06139111891388893,-0.013019559904932976],"type":"VEC3"},{"bufferView":41,"byteOffset":0,"componentType":5126,"count":72,"type":"VEC3"},{"bufferView":42,"byteOffset":0,"componentType":5125,"count":108,"type":"SCALAR"},{"bufferView":43,"byteOffset":0,"componentType":5126,"count":72,"max":[-0.24734759330749512,-0.05177474021911621,-0.0013945699902251363],"min":[-0.2906706929206848,-0.06308913230895996,-0.014784839935600758],"type":"VEC3"},{"bufferView":44,"byteOffset":0,"componentType":5126,"count":72,"type":"VEC3"},{"bufferView":45,"byteOffset":0,"componentType":5125,"count":72,"type":"SCALAR"},{"bufferView":46,"byteOffset":0,"componentType":5126,"count":48,"max":[0.1459735929965973,-0.04006766900420189,0.030167460441589355],"min":[0.13015839457511902,-0.04716647043824196,0.02234313078224659],"type":"VEC3"},{"bufferView":47,"byteOffset":0,"componentType":5126,"count":48,"type":"VEC3"},{"bufferView":48,"byteOffset":0,"componentType":5125,"count":348,"type":"SCALAR"},{"bufferView":49,"byteOffset":0,"componentType":5126,"count":232,"max":[1.606673002243042,5.363699913024902,-0.23676300048828125],"min":[-1.606673002243042,0.5933240056037903,-1.9465910196304321],"type":"VEC3"},{"bufferView":50,"byteOffset":0,"componentType":5126,"count":232,"type":"VEC3"},{"bufferView":51,"byteOffset":0,"componentType":5125,"count":738,"type":"SCALAR"},{"bufferView":52,"byteOffset":0,"componentType":5126,"count":494,"max":[3.062047004699707,12.717893600463867,-0.006101999897509813],"min":[-3.062047004699707,4.972102165222168,-2.182884931564331],"type":"VEC3"},{"bufferView":53,"byteOffset":0,"componentType":5126,"count":494,"type":"VEC3"},{"bufferView":54,"byteOffset":0,"componentType":5125,"count":1224,"type":"SCALAR"},{"bufferView":55,"byteOffset":0,"componentType":5126,"count":760,"max":[3.0109059810638428,12.900047302246094,0.5549989938735962],"min":[-3.0109059810638428,3.9598278999328613,-2.0268149375915527],"type":"VEC3"},{"bufferView":56,"byteOffset":0,"componentType":5126,"count":760,"type":"VEC3"},{"bufferView":57,"byteOffset":0,"componentType":5125,"count":408,"type":"SCALAR"},{"bufferView":58,"byteOffset":0,"componentType":5126,"count":250,"max":[1.5151389837265015,1.651134967803955,-0.20250900089740753],"min":[-1.5151389837265015,-0.0557899996638298,-1.7046220302581787],"type":"VEC3"},{"bufferView":59,"byteOffset":0,"componentType":5126,"count":250,"type":"VEC3"},{"bufferView":60,"byteOffset":0,"componentType":5125,"count":120,"type":"SCALAR"},{"bufferView":61,"byteOffset":0,"componentType":5126,"count":80,"max":[1.6403369903564453,9.88823127746582,-0.12690900266170502],"min":[-1.6403369903564453,4.610086917877197,-2.3667750358581543],"type":"VEC3"},{"bufferView":62,"byteOffset":0,"componentType":5126,"count":80,"type":"VEC3"},{"bufferView":63,"byteOffset":0,"componentType":5125,"count":204,"type":"SCALAR"},{"bufferView":64,"byteOffset":0,"componentType":5126,"count":132,"max":[0.3263779878616333,9.451801300048828,-0.26471900939941406],"min":[-0.3263779878616333,7.299470901489258,-0.5568199753761292],"type":"VEC3"},{"bufferView":65,"byteOffset":0,"componentType":5126,"count":132,"type":"VEC3"}],"bufferViews":[{"buffer":0,"byteOffset":0,"byteLength":1560,"target":34963},{"buffer":0,"byteOffset":1560,"byteLength":912,"target":34962},{"buffer":0,"byteOffset":2472,"byteLength":912,"target":34962},{"buffer":0,"byteOffset":3384,"byteLength":3600,"target":34963},{"buffer":0,"byteOffset":6984,"byteLength":1824,"target":34962},{"buffer":0,"byteOffset":8808,"byteLength":1824,"target":34962},{"buffer":0,"byteOffset":10632,"byteLength":3600,"target":34963},{"buffer":0,"byteOffset":14232,"byteLength":1824,"target":34962},{"buffer":0,"byteOffset":16056,"byteLength":1824,"target":34962},{"buffer":0,"byteOffset":17880,"byteLength":3600,"target":34963},{"buffer":0,"byteOffset":21480,"byteLength":1824,"target":34962},{"buffer":0,"byteOffset":23304,"byteLength":1824,"target":34962},{"buffer":0,"byteOffset":25128,"byteLength":336,"target":34963},{"buffer":0,"byteOffset":25464,"byteLength":672,"target":34962},{"buffer":0,"byteOffset":26136,"byteLength":672,"target":34962},{"buffer":0,"byteOffset":26808,"byteLength":144,"target":34963},{"buffer":0,"byteOffset":26952,"byteLength":288,"target":34962},{"buffer":0,"byteOffset":27240,"byteLength":288,"target":34962},{"buffer":0,"byteOffset":27528,"byteLength":624,"target":34963},{"buffer":0,"byteOffset":28152,"byteLength":1104,"target":34962},{"buffer":0,"byteOffset":29256,"byteLength":1104,"target":34962},{"buffer":0,"byteOffset":30360,"byteLength":720,"target":34963},{"buffer":0,"byteOffset":31080,"byteLength":1440,"target":34962},{"buffer":0,"byteOffset":32520,"byteLength":1440,"target":34962},{"buffer":0,"byteOffset":33960,"byteLength":11808,"target":34963},{"buffer":0,"byteOffset":45768,"byteLength":24864,"target":34962},{"buffer":0,"byteOffset":70632,"byteLength":24864,"target":34962},{"buffer":0,"byteOffset":95496,"byteLength":432,"target":34963},{"buffer":0,"byteOffset":95928,"byteLength":864,"target":34962},{"buffer":0,"byteOffset":96792,"byteLength":864,"target":34962},{"buffer":0,"byteOffset":97656,"byteLength":528,"target":34963},{"buffer":0,"byteOffset":98184,"byteLength":1056,"target":34962},{"buffer":0,"byteOffset":99240,"byteLength":1056,"target":34962},{"buffer":0,"byteOffset":100296,"byteLength":144,"target":34963},{"buffer":0,"byteOffset":100440,"byteLength":288,"target":34962},{"buffer":0,"byteOffset":100728,"byteLength":288,"target":34962},{"buffer":0,"byteOffset":101016,"byteLength":144,"target":34963},{"buffer":0,"byteOffset":101160,"byteLength":288,"target":34962},{"buffer":0,"byteOffset":101448,"byteLength":288,"target":34962},{"buffer":0,"byteOffset":101736,"byteLength":432,"target":34963},{"buffer":0,"byteOffset":102168,"byteLength":864,"target":34962},{"buffer":0,"byteOffset":103032,"byteLength":864,"target":34962},{"buffer":0,"byteOffset":103896,"byteLength":432,"target":34963},{"buffer":0,"byteOffset":104328,"byteLength":864,"target":34962},{"buffer":0,"byteOffset":105192,"byteLength":864,"target":34962},{"buffer":0,"byteOffset":106056,"byteLength":288,"target":34963},{"buffer":0,"byteOffset":106344,"byteLength":576,"target":34962},{"buffer":0,"byteOffset":106920,"byteLength":576,"target":34962},{"buffer":0,"byteOffset":107496,"byteLength":1392,"target":34963},{"buffer":0,"byteOffset":108888,"byteLength":2784,"target":34962},{"buffer":0,"byteOffset":111672,"byteLength":2784,"target":34962},{"buffer":0,"byteOffset":114456,"byteLength":2952,"target":34963},{"buffer":0,"byteOffset":117408,"byteLength":5928,"target":34962},{"buffer":0,"byteOffset":123336,"byteLength":5928,"target":34962},{"buffer":0,"byteOffset":129264,"byteLength":4896,"target":34963},{"buffer":0,"byteOffset":134160,"byteLength":9120,"target":34962},{"buffer":0,"byteOffset":143280,"byteLength":9120,"target":34962},{"buffer":0,"byteOffset":152400,"byteLength":1632,"target":34963},{"buffer":0,"byteOffset":154032,"byteLength":3000,"target":34962},{"buffer":0,"byteOffset":157032,"byteLength":3000,"target":34962},{"buffer":0,"byteOffset":160032,"byteLength":480,"target":34963},{"buffer":0,"byteOffset":160512,"byteLength":960,"target":34962},{"buffer":0,"byteOffset":161472,"byteLength":960,"target":34962},{"buffer":0,"byteOffset":162432,"byteLength":816,"target":34963},{"buffer":0,"byteOffset":163248,"byteLength":1584,"target":34962},{"buffer":0,"byteOffset":164832,"byteLength":1584,"target":34962}],"scene":0,"scenes":[{"nodes":[0,5,20],"name":"Project Name"}],"extensionsUsed":["KHR_texture_transform"],"buffers":[{"byteLength":166416,"uri":"ProjectName.bin"}]}